If you must download and send. Keep active torrents for other! Thanks
Se si scarica devi inviare. Mantenere torrents attivi per altri! Grazie
Daca descarci trebuie sa trimiti. Pastreaza torrentul activ si pentru alti! Mersi
---------------------------------------------------------------------------------


The.Last.of.the.Mohicans.1992 [multi.sub]AC3.H264-MarGelaTu.mkv - http://www.imdb.com/title/tt0104691/ [Won Oscar. Another 5 wins & 10 nominations]
-----------------------------------------------------------------------------------

      Format : Matroska
      File size : 1.74 GiB
      Duration : 1h 47mn
      Overall bit rate : 2 315 Kbps
  
   Video #1
      ID : 1
      Format : AVC
      Format/Info : Advanced Video Codec
      Format profile : High@L3.0
      Format settings, CABAC : Yes
      Format settings, ReFrames : 3 frames
      Muxing mode : Container profile=Unknown@3.0
      Codec ID : V_MPEG4/ISO/AVC
      Duration : 1h 47mn
      Bit rate : 1 885 Kbps
      Width : 720 pixels
      Height : 432 pixels
      Display aspect ratio : 2.35:1
      Original display aspect ratio : 2.35:1
      Frame rate : 25.000 fps
      Resolution : 24 bits
      Colorimetry : 4:2:0
      Scan type : Progressive
      Bits/(Pixel*Frame) : 0.242
      Stream size : 1.41 GiB (81%)
      Writing library : x264 core 79
     
   Audio #2
      ID : 2
      Format : AC-3
      Format/Info : Audio Coding 3
      Codec ID : A_AC3
      Duration : 1h 47mn
      Bit rate mode : Constant
      Bit rate : 384 Kbps
      Channel(s) : 6 channels
      Channel positions : Front: L C R, Surround: L R, LFE
      Sampling rate : 48.0 KHz
      Stream size : 295 MiB (17%)
      Language : English
   Text #3,4,5,6,7
      ID : 3,4,5,6,7
      Format : VobSub
      Codec ID : S_VOBSUB
      Codec ID/Info : The same subtitle format used on DVDs
      Language : French, Italian, Nederland, Spanish, Romanian